<svg preserveAspectRatio="none" overflow="visible" style="display: block;" width="12.9167" height="14.7917" viewBox="0 0 12.9167 14.7917" fill="none" xmlns="http://www.w3.org/2000/svg">
<path id="vector" fill-rule="evenodd" clip-rule="evenodd" d="M12.9167 11.0115C12.9167 12.0629 12.0639 12.9157 11.0125 12.9157L8.33333 12.9167C8.33333 13.9521 7.49375 14.7917 6.45833 14.7917C5.42292 14.7917 4.58333 13.9521 4.58333 12.9167L1.9042 12.9157C0.852767 12.9157 0 12.0629 0 11.0115C9.45276e-07 10.6354 0.111861 10.2685 0.318807 9.95656L0.319621 9.95534C1.19799 8.63827 1.66666 7.09016 1.66667 5.5073V4.79167C1.66667 2.14545 3.81211 0 6.45833 0C9.10455 0 11.25 2.14545 11.25 4.79167V5.5073C11.25 7.04068 11.6898 8.54143 12.5159 9.83114L12.597 9.95534C12.8052 10.2676 12.9167 10.6362 12.9167 11.0115ZM6.45833 1.25C4.50247 1.25 2.91667 2.8358 2.91667 4.79167V5.5073C2.91666 7.33694 2.37493 9.1264 1.35956 10.6489C1.2879 10.7575 1.25 10.8838 1.25 11.0115C1.25 11.3725 1.54312 11.6656 1.9042 11.6656H11.0125C11.3735 11.6656 11.6667 11.3725 11.6667 11.0115C11.6667 10.8825 11.628 10.7553 11.557 10.6488C10.5417 9.12633 10 7.33688 10 5.5073V4.79167C10 2.8358 8.4142 1.25 6.45833 1.25Z" fill="#1D2539"/>
</svg>
