<svg preserveAspectRatio="none" overflow="visible" style="display: block;" width="101" height="16" viewBox="0 0 101 16" fill="none" xmlns="http://www.w3.org/2000/svg">
<g id="logo">
<g id="Group 1686557891">
<path id="Vector" d="M36.2561 3.98528C37.0431 3.99752 37.8563 3.98876 38.6454 3.99034C38.3952 5.06335 38.1132 6.13102 37.8706 7.20394C38.9412 7.21974 40.0497 7.20398 41.1233 7.20306C41.3733 6.13322 41.6489 5.05512 41.9131 3.98766C42.7152 3.99703 43.5306 3.99061 44.3337 3.99078C43.6744 6.4177 42.8413 10.1192 42.1714 12.6733C42.1551 12.7353 42.0634 12.7394 42.0002 12.7504C41.2553 12.7356 40.476 12.7767 39.7381 12.7238C40.023 11.6251 40.3006 10.5246 40.5711 9.42221L37.3226 9.42361C37.0317 10.5195 36.8017 11.6465 36.5121 12.7466C35.8368 12.771 34.7503 12.7643 34.0824 12.7281L36.2561 3.98528Z" fill="#FD7413"/>
<path id="Vector_2" d="M21.6218 3.99803C22.3539 3.95912 23.3551 3.98627 24.1027 3.98715C24.6566 6.89831 25.1628 9.81841 25.621 12.7462L23.1425 12.7516C23.0432 12.2826 22.9851 11.7809 22.921 11.3043C22.1073 11.2419 20.8136 11.2808 19.9825 11.2918C19.8007 11.2846 19.5768 11.2945 19.3915 11.2976C19.0864 11.7811 18.7773 12.262 18.4643 12.7404C17.8642 12.7866 16.4921 12.7473 15.8794 12.7209C17.8232 9.83355 19.6162 6.89198 21.6218 3.99803ZM20.6575 9.27326L21.2008 9.2726L22.6362 9.27141C22.5887 8.92893 22.3291 6.93198 22.2154 6.76166C21.7065 7.49099 21.0995 8.5015 20.6575 9.27326Z" fill="#FD7413"/>
<path id="Vector_3" d="M30.9964 3.80532C32.3942 3.59751 33.9809 4.16937 34.9203 5.2234C34.5184 5.5217 33.5416 6.43754 33.2042 6.79706C32.5378 6.24034 32.0239 5.88716 31.1062 5.85023C30.7609 5.83637 29.971 5.97157 29.966 6.47099C30.0165 6.90783 30.8601 7.10592 31.1823 7.21753C31.9988 7.50034 32.8072 7.68883 33.4458 8.29124C34.454 9.24233 33.9828 10.9775 33.1364 11.8578C32.3461 12.6798 30.9951 12.9413 29.9087 12.9388C28.648 12.9744 26.8321 12.4203 26.0926 11.3264C26.5349 10.8907 27.3789 10.0166 27.8651 9.69233C28.667 10.5336 30.1807 11.4085 31.4099 10.5135C31.6879 10.311 31.3776 9.80627 31.032 9.672C30.0944 9.30782 29.012 9.12091 28.1975 8.50108C27.1286 7.68931 27.3541 6.03402 28.1125 5.09586C28.7993 4.24471 29.9483 3.91385 30.9964 3.80532Z" fill="#FD7413"/>
<path id="Vector_4" d="M3.14449 3.9903C5.40494 4.03427 7.77557 3.98309 10.0503 3.99466C9.8628 4.58954 9.65698 5.46974 9.50415 6.08711C8.12042 6.04393 6.4579 6.08359 5.05486 6.08464C4.937 6.55 4.82498 7.01686 4.71873 7.48503L8.72017 7.48838C8.57776 8.06345 8.4394 8.63954 8.30513 9.21655C8.278 9.34207 8.2572 9.39462 8.20807 9.51327C8.05133 9.62699 4.69599 9.57567 4.19009 9.59473C4.06145 10.4155 3.64874 11.9132 3.43306 12.747L0.998215 12.745L3.14449 3.9903Z" fill="#FD7413"/>
<path id="Vector_5" d="M11.0175 3.98978C11.6188 4.03058 12.8289 3.98815 13.4751 3.98591C12.9158 6.19111 12.3964 8.41902 11.8082 10.6117C13.0869 10.5847 14.4297 10.602 15.7136 10.5984L15.1666 12.7613C14.5104 12.7241 13.6484 12.7461 12.9756 12.7458L8.8773 12.7433C9.50079 9.85862 10.3476 6.88483 11.0175 3.98978Z" fill="#FD7413"/>
</g>
<g id="Group 1686557890">
<path id="Vector_6" d="M75.732 3.98189C77.986 4.03435 80.3693 3.92032 82.5911 3.99237C82.4948 4.53294 82.2199 5.51004 82.0884 6.08098L77.6078 6.08512C77.5119 6.48983 77.4191 6.91321 77.2968 7.30938L81.452 7.31013C81.2317 7.96658 81.1033 8.66198 80.9252 9.33678C80.4673 9.33911 76.9371 9.29325 76.8232 9.39223C76.7154 9.79162 76.6174 10.248 76.5202 10.6542L80.9749 10.645C80.8671 11.2469 80.6331 12.1285 80.4845 12.7318C80.0311 12.7829 78.3537 12.7614 77.7965 12.7514C76.4744 12.7278 74.8903 12.8042 73.5955 12.7287L75.0363 6.84754C75.1951 6.18374 75.5275 4.53492 75.732 3.98189Z" fill="#FD7413"/>
<path id="Vector_7" d="M61.6361 4.00941C62.1894 3.95378 63.5558 3.98921 64.135 4.00101L65.1928 10.0262C65.3163 10.7448 65.5903 12.0959 65.6387 12.7563C64.822 12.7463 63.9407 12.7813 63.1323 12.7313C63.0531 12.3369 62.9661 11.6823 62.9247 11.2806C62.1687 11.3302 60.7926 11.281 60.001 11.279L59.4151 11.2925C59.15 11.716 58.7546 12.3685 58.4476 12.7468C57.6151 12.7492 56.7465 12.7649 55.9179 12.7219C57.8227 9.9352 59.665 6.73221 61.6361 4.00941ZM61.1932 9.27338L62.6358 9.27347C62.5975 9.03419 62.2879 6.75655 62.2598 6.72653C61.9572 7.18762 60.8819 8.82118 60.7033 9.23936C60.8216 9.2923 61.0543 9.27483 61.1932 9.27338Z" fill="#FD7413"/>
<path id="Vector_8" d="M53.4311 3.8047C54.7817 3.64208 56.4736 4.12588 57.3532 5.21121C56.8184 5.73259 56.1956 6.27255 55.6371 6.77628C55.163 6.36765 54.8248 6.11015 54.2086 5.94062C53.6998 5.80063 52.5132 5.76551 52.4081 6.46117C52.4327 6.62555 52.518 6.74693 52.6614 6.82698C53.6637 7.38709 55.0931 7.45812 55.9375 8.30474C56.2955 8.65682 56.4942 9.13961 56.4885 9.64171C56.4811 12.0234 54.3907 12.9496 52.3008 12.9393C52.1952 12.9422 52.0901 12.9399 51.985 12.9325C50.604 12.831 49.4659 12.4074 48.5471 11.3412C49.0085 10.8184 49.8089 10.1207 50.3248 9.66984C51.1072 10.4716 51.8482 10.9347 53.0286 10.8678C53.738 10.8276 54.3793 10.1116 53.5674 9.71657C52.529 9.21121 51.0452 9.13485 50.2931 8.13059C49.6299 7.24503 49.9334 5.90335 50.5684 5.08978C51.2448 4.24356 52.3993 3.91459 53.4311 3.8047Z" fill="#FD7413"/>
<path id="Vector_9" d="M68.4575 3.97712C69.2597 3.98539 70.0619 3.98927 70.8641 3.98865C70.3011 6.19187 69.7558 8.39966 69.2284 10.6118C70.499 10.5812 71.8567 10.6029 73.1343 10.6005C72.9482 11.3136 72.775 12.0301 72.6153 12.7495C72.1597 12.7873 71.051 12.7519 70.5571 12.7512L66.3003 12.7473C66.5096 11.9451 68.311 4.11408 68.4575 3.97712Z" fill="#FD7413"/>
</g>
</g>
</svg>
