<svg preserveAspectRatio="none" overflow="visible" style="display: block;" width="12.6146" height="13.235" viewBox="0 0 12.6146 13.235" fill="none" xmlns="http://www.w3.org/2000/svg">
<path id="vector" d="M12.4148 6.9625C12.2031 5.90583 11.3431 5.10583 10.2731 4.97167C10.1448 4.95583 10.0156 4.94083 9.88646 4.92667C9.98896 3.97667 9.93729 3.00833 9.73062 2.07833C9.52396 1.14833 8.82146 0.426667 7.89646 0.195C6.85729 -0.065 5.75812 -0.065 4.71896 0.195C3.79479 0.425833 3.09146 1.1475 2.88479 2.07833C2.67813 3.00833 2.62729 3.97667 2.72896 4.92667C2.59979 4.94083 2.47146 4.95583 2.34229 4.97167C1.27312 5.105 0.412292 5.905 0.200625 6.9625C-0.066875 8.30167 -0.066875 9.65917 0.200625 10.9983C0.412292 12.055 1.27229 12.855 2.34229 12.9883C3.65812 13.1525 4.98229 13.235 6.30729 13.235C7.63229 13.235 8.95646 13.1525 10.2723 12.9883C11.3415 12.855 12.2023 12.055 12.414 10.9983C12.6815 9.65917 12.6815 8.30167 12.414 6.9625H12.4148ZM4.96229 1.16583C5.84312 0.945833 6.77396 0.945833 7.65479 1.16583C8.20979 1.30417 8.63146 1.7375 8.75562 2.29583C8.93979 3.12333 8.98313 3.98583 8.89063 4.83083C7.17229 4.69167 5.44396 4.69167 3.72646 4.83083C3.63396 3.98583 3.67896 3.12333 3.86312 2.29583C3.98729 1.7375 4.40896 1.305 4.96396 1.16583M6.80896 8.64667C6.80896 8.64667 6.80896 8.64667 6.80896 8.6475V9.98083C6.80896 10.2567 6.58479 10.4808 6.30896 10.4808C6.03313 10.4808 5.80896 10.2567 5.80896 9.98083V8.6475C5.80896 8.6475 5.80896 8.6475 5.80896 8.64667C5.60646 8.495 5.47563 8.25333 5.47563 7.98083C5.47563 7.52083 5.84896 7.1475 6.30896 7.1475C6.76896 7.1475 7.14229 7.52083 7.14229 7.98083C7.14229 8.25333 7.01062 8.49417 6.80896 8.64667Z" fill="white"/>
</svg>
